<?xml version="1.0" standalone="no"?>
<!DOCTYPE svg PUBLIC "-//W3C//DTD SVG 20010904//EN"
 "http://www.w3.org/TR/2001/REC-SVG-20010904/DTD/svg10.dtd">
<svg version="1.0" xmlns="http://www.w3.org/2000/svg"
 width="1000.000000pt" height="1000.000000pt" viewBox="0 0 1000.000000 1000.000000"
 preserveAspectRatio="xMidYMid meet">
<metadata>
Created by potrace 1.11, written by Peter Selinger 2001-2013
</metadata>
<g transform="translate(0.000000,1000.000000) scale(0.100000,-0.100000)"
fill="#000000" stroke="none">
<path d="M4885 8524 c-99 -8 -352 -46 -445 -66 -838 -180 -1576 -710 -2025
-1453 -217 -360 -353 -749 -421 -1200 -21 -140 -29 -509 -15 -678 62 -744 381
-1427 911 -1957 742 -742 1786 -1061 2819 -860 594 115 1164 421 1601 859 496
498 794 1098 896 1806 21 147 29 535 15 691 -88 929 -573 1769 -1324 2292
-431 301 -891 478 -1427 548 -113 14 -487 26 -585 18z m585 -383 c30 -5 82
-14 115 -21 l60 -13 -160 -82 c-88 -45 -211 -108 -273 -140 -116 -60 -153 -88
-179 -139 -8 -16 -26 -118 -40 -230 -34 -287 -69 -558 -92 -731 -11 -82 -23
-190 -27 -240 -5 -81 -3 -94 18 -135 15 -30 37 -52 65 -68 l42 -23 485 0 c522
1 526 1 573 52 12 14 43 69 69 124 25 55 63 136 84 180 20 44 40 90 44 103 l8
23 611 -7 c337 -3 615 -9 619 -13 11 -11 115 -215 148 -291 135 -316 220 -704
220 -1006 l0 -85 -227 285 c-126 156 -256 321 -291 366 -102 131 -2 120 -1012
120 -824 0 -867 -1 -905 -19 -56 -26 -960 -934 -972 -976 -4 -16 -8 -271 -8
-565 0 -517 1 -536 20 -569 11 -19 37 -48 58 -65 l39 -31 466 -5 467 -5 3
-636 2 -637 -47 -6 c-27 -3 -156 -8 -288 -11 -187 -5 -268 -3 -365 9 -169 21
-317 49 -424 80 -48 14 -93 26 -100 26 -6 0 -24 7 -40 15 -16 8 -54 22 -85 31
-31 9 -65 21 -76 28 -11 7 -42 21 -70 31 -75 28 -375 188 -434 231 -3 3 -12
39 -71 309 -16 72 -40 180 -54 240 -68 302 -89 399 -111 503 -28 127 -51 187
-86 218 -13 12 -62 38 -109 59 -86 37 -120 53 -220 98 -30 14 -127 58 -215 97
-88 39 -183 82 -211 95 l-51 24 -11 103 c-13 112 -24 288 -20 289 12 3 226 33
378 53 256 34 370 55 403 74 39 23 77 83 93 144 7 29 27 107 44 173 18 66 45
172 61 235 17 63 41 156 54 205 71 272 89 338 110 420 57 221 85 339 85 364 0
25 -29 161 -86 401 -14 58 -38 161 -54 230 -16 69 -33 139 -38 156 -10 31 -9
32 80 93 356 247 793 412 1238 466 125 15 586 12 690 -4z m817 -261 c185 -87
365 -200 553 -349 97 -77 370 -344 370 -361 0 -6 -201 -10 -555 -10 -605 0
-581 2 -638 -57 -15 -16 -67 -117 -117 -224 l-89 -194 -277 -3 -276 -2 6 27
c5 29 14 99 66 503 16 129 32 254 36 278 3 29 12 47 27 56 84 53 763 393 776
389 9 -4 62 -27 118 -53z m-3144 -567 c11 -18 117 -494 117 -523 0 -33 -293
-1173 -309 -1200 -8 -15 -47 -22 -440 -74 l-174 -23 7 106 c19 318 116 674
267 981 127 259 247 438 432 647 81 91 91 100 100 86z m3923 -1531 c6 -4 71
-83 145 -177 73 -93 223 -280 333 -415 110 -135 215 -264 234 -288 l35 -43
-12 -57 c-180 -843 -779 -1575 -1578 -1932 -86 -38 -332 -130 -349 -130 -2 0
-5 321 -6 713 -2 580 -6 717 -17 737 -17 32 -60 78 -86 93 -14 9 -158 13 -485
17 l-465 5 -3 355 -2 354 388 388 387 388 735 0 c404 0 740 -4 746 -8z m-4241
-1637 c72 -32 133 -60 137 -64 9 -8 130 -550 126 -563 -9 -27 -232 253 -340
427 -49 79 -158 286 -158 300 0 2 24 -6 53 -19 28 -12 111 -49 182 -81z"/>
<path d="M2140 1266 l0 -516 50 0 50 0 0 239 0 238 158 6 c221 7 290 33 348
133 32 55 43 152 24 219 -17 62 -85 136 -152 166 -49 21 -70 23 -265 27 l-213
4 0 -516z m390 403 c100 -23 145 -81 138 -179 -3 -43 -11 -67 -31 -93 -40 -53
-94 -67 -259 -67 l-138 0 0 175 0 175 123 0 c67 0 142 -5 167 -11z"/>
<path d="M2980 1265 l0 -515 55 0 55 0 0 250 0 250 263 -2 262 -3 3 -247 2
-248 50 0 50 0 0 515 0 515 -50 0 -50 0 0 -215 0 -215 -265 0 -265 0 0 215 0
215 -55 0 -55 0 0 -515z"/>
<path d="M3970 1266 l0 -516 50 0 50 0 0 239 0 238 158 6 c221 7 290 33 348
133 32 55 43 152 24 219 -17 62 -85 136 -152 166 -49 21 -70 23 -265 27 l-213
4 0 -516z m390 403 c100 -23 145 -81 138 -179 -3 -43 -11 -67 -31 -93 -40 -53
-94 -67 -259 -67 l-138 0 0 175 0 175 123 0 c67 0 142 -5 167 -11z"/>
<path d="M4915 1768 c-2 -7 -33 -227 -70 -488 -36 -261 -68 -487 -71 -502 -6
-28 -5 -28 45 -28 28 0 51 3 51 7 0 16 91 681 96 703 5 20 41 -45 190 -342
101 -203 190 -368 197 -368 7 0 94 164 195 365 137 276 183 360 187 343 5 -22
95 -686 95 -701 0 -9 100 -9 100 1 2 37 -147 1021 -154 1019 -5 -2 -102 -192
-216 -422 l-207 -420 -211 423 c-117 232 -214 422 -217 422 -3 0 -7 -6 -10
-12z"/>
<path d="M6388 1516 c-106 -31 -207 -119 -256 -224 -24 -51 -27 -69 -27 -167
0 -97 3 -116 26 -165 35 -74 115 -160 181 -193 148 -75 308 -54 426 57 27 26
52 46 56 46 3 0 6 -27 6 -60 l0 -60 45 0 45 0 0 380 0 380 -45 0 -45 0 0 -65
c0 -36 -1 -65 -3 -65 -2 0 -25 21 -52 46 -67 65 -138 95 -233 100 -47 2 -96
-2 -124 -10z m232 -108 c58 -24 115 -80 148 -143 23 -43 27 -62 27 -140 0
-104 -21 -159 -88 -226 -60 -60 -119 -83 -207 -84 -91 0 -148 23 -210 85 -62
62 -92 135 -92 223 0 228 216 374 422 285z"/>
<path d="M7425 1521 c-64 -17 -107 -42 -160 -92 l-55 -52 0 67 0 66 -50 0 -50
0 0 -520 0 -520 50 0 50 0 0 201 0 201 50 -45 c58 -53 113 -81 188 -99 67 -15
170 1 240 36 107 54 195 180 212 303 32 236 -137 448 -368 459 -42 2 -90 0
-107 -5z m212 -117 c60 -29 117 -88 146 -153 16 -35 22 -66 22 -126 0 -95 -21
-150 -84 -218 -143 -155 -404 -109 -493 88 -31 69 -31 190 -1 256 73 162 251
228 410 153z"/>
</g>
</svg>
